<svg width="256" height="256" viewBox="0 0 256 256" fill="none" xmlns="http://www.w3.org/2000/svg">
  <rect width="256" height="256" rx="64" fill="#171717"/>
  <rect x="20" y="20" width="216" height="216" rx="52" fill="url(#bg)"/>
  <path d="M156.756 62.505c11.89-11.889 31.168-11.889 43.058 0 11.889 11.89 11.889 31.168 0 43.058l-64.843 64.843a49.596 49.596 0 0 1-28.062 14.031l-34.221 5.703 5.703-34.221a49.598 49.598 0 0 1 14.031-28.062l64.334-64.334Z" fill="#171717"/>
  <path d="m89.213 174.932 18.296-3.049a31.026 31.026 0 0 0 17.554-8.777l50.552-50.552-26.504-26.504-50.043 50.044a31.026 31.026 0 0 0-8.777 17.553l-3.078 18.285Z" fill="#F5F1E7"/>
  <path d="m149.111 86.05 26.504 26.504" stroke="#F59E0B" stroke-width="10" stroke-linecap="round"/>
  <path d="M71 191.5c7.663-22.013 21.538-36.679 41.626-43.998" stroke="#171717" stroke-width="12" stroke-linecap="round"/>
  <path d="M176.5 63v17" stroke="#F59E0B" stroke-width="10" stroke-linecap="round"/>
  <path d="M168 71.5h17" stroke="#F59E0B" stroke-width="10" stroke-linecap="round"/>
  <path d="m72 64 7.984 18.516L98.5 90.5l-18.516 7.984L72 117l-7.984-18.516L45.5 90.5l18.516-7.984L72 64Z" fill="#F59E0B"/>
  <defs>
    <linearGradient id="bg" x1="128" y1="20" x2="128" y2="236" gradientUnits="userSpaceOnUse">
      <stop stop-color="#FFF8EC"/>
      <stop offset="1" stop-color="#F7E7C4"/>
    </linearGradient>
  </defs>
</svg>
